<?xml version="1.0" standalone="no"?><!DOCTYPE svg PUBLIC "-//W3C//DTD SVG 1.1//EN" "http://www.w3.org/Graphics/SVG/1.1/DTD/svg11.dtd"><svg t="1625018092002" class="icon" viewBox="0 0 1024 1024" version="1.1" xmlns="http://www.w3.org/2000/svg" p-id="2086" width="48" height="48" xmlns:xlink="http://www.w3.org/1999/xlink"><defs><style type="text/css"></style></defs><path d="M952.64 516.224L578.944 142.848a94.976 94.976 0 0 0-133.952 0L71.232 516.224a24.96 24.96 0 0 0 35.264 35.264l62.08-62.08V812.8a113.92 113.92 0 0 0 113.792 113.792h461.184A113.92 113.92 0 0 0 857.344 812.8V491.776l59.968 59.968a25.152 25.152 0 0 0 17.6 7.296 24.96 24.96 0 0 0 17.728-42.56z m-144.96 296.32a64 64 0 0 1-64 64H282.368a64 64 0 0 1-64-64V439.68l261.888-261.44a44.8 44.8 0 0 1 63.552 0l263.936 263.68z" fill="#13227a" p-id="2087"></path><path d="M663.68 907.456h-48.768v-217.6a62.72 62.72 0 0 0-62.656-62.656h-77.504a62.72 62.72 0 0 0-62.656 62.656v216h-48.704V689.728a111.488 111.488 0 0 1 111.36-111.36h77.504a111.488 111.488 0 0 1 111.36 111.36v217.6z" fill="#13227a" p-id="2088"></path></svg>