<?xml version="1.0" standalone="no"?><!DOCTYPE svg PUBLIC "-//W3C//DTD SVG 1.1//EN" "http://www.w3.org/Graphics/SVG/1.1/DTD/svg11.dtd"><svg t="1625018346028" class="icon" viewBox="0 0 1024 1024" version="1.1" xmlns="http://www.w3.org/2000/svg" p-id="5876" xmlns:xlink="http://www.w3.org/1999/xlink" width="48" height="48"><defs><style type="text/css"></style></defs><path d="M512 172.16c-106.56 0-192.768 86.336-192.768 192.768 0 106.432 86.208 192.704 192.768 192.704 106.432 0 192.768-86.272 192.768-192.704C704.768 258.496 618.432 172.16 512 172.16zM512 513.344c-82.048 0-148.416-66.432-148.416-148.416S429.952 216.448 512 216.448s148.416 66.496 148.416 148.48S594.048 513.344 512 513.344z" p-id="5877" fill="#515151"></path><path d="M268.096 851.904C268.16 717.376 377.28 608.128 512 608.128s243.712 109.248 243.776 243.776l50.432 0C806.144 689.344 674.496 557.632 512 557.632s-294.144 131.712-294.208 294.208L268.096 851.84z" p-id="5878" fill="#515151"></path></svg>